<?xml version="1.0" encoding="utf-8"?>
<!-- Generator: Adobe Illustrator 27.4.0, SVG Export Plug-In . SVG Version: 6.00 Build 0)  -->
<svg version="1.1" id="Layer_1" xmlns="http://www.w3.org/2000/svg" xmlns:xlink="http://www.w3.org/1999/xlink" x="0px" y="0px"
	 viewBox="0 0 721.09 231.58" style="enable-background:new 0 0 721.09 231.58;" xml:space="preserve">
<style type="text/css">
	.st0{fill:url(#SVGID_1_);}
	.st1{fill:url(#SVGID_00000085238919556806641220000017702640290402691461_);}
</style>
<g>
	<linearGradient id="SVGID_1_" gradientUnits="userSpaceOnUse" x1="83.5329" y1="164.635" x2="340.9359" y2="164.635">
		<stop  offset="0.4" style="stop-color:#14CAD4"/>
		<stop  offset="0.8" style="stop-color:#FF5AFF"/>
	</linearGradient>
	<path class="st0" d="M300.15,102.14l-0.63,0.63l-60.74,60.74h-0.01c-13.57,13.57-35.55,13.57-49.12,0l-5.03-5.08l-55.53-56.09
		l-4.32-4.36l-0.3-0.3l-40.94,40.93l0.3,0.3l58.65,58.64l1.51,1.51l-0.14,0.14c1.27,1.47,2.59,2.91,3.95,4.32l0.91,0.92
		c36.17,36.18,94.83,36.18,131,0h0.01l61.22-61.52L300.15,102.14z"/>
	
		<linearGradient id="SVGID_00000109713104020760625380000018275029430462812087_" gradientUnits="userSpaceOnUse" x1="309.2466" y1="66.9039" x2="570.6719" y2="66.9039">
		<stop  offset="0.2" style="stop-color:#FF5AFF"/>
		<stop  offset="0.6" style="stop-color:#14CAD4"/>
	</linearGradient>
	<path style="fill:url(#SVGID_00000109713104020760625380000018275029430462812087_);" d="M510.22,32.51l0.14-0.14
		c-1.25-1.45-2.54-2.88-3.89-4.26l-0.96-0.98c-36.18-36.17-94.83-36.17-131,0l-0.84,0.85c-1.4,1.43-2.73,2.9-4.01,4.39l0.14,0.14
		v0.01l-1.54,1.54l-58.9,58.91l-0.08,0.08l40.76,40.76l0.08-0.08l4.7-4.72l55.6-55.88l5.04-5.06C429,54.5,451,54.5,464.56,68.07
		l5.04,5.06l55.61,55.88l4.7,4.71l40.76-40.76L510.22,32.51z"/>
	<g>
		<path d="M0,167.59V63.99h31.08v103.6H0z"/>
		<path d="M144.28,63.99h30.47v103.91h-10.82l-43.42-38.7c-3.05-2.74-6.4-6.09-9.6-9.45c0.3,4.27,0.61,8.53,0.61,12.04v35.8H81.05
			V63.68h10.66l38.85,34.58c4.88,4.42,9.29,8.99,14.17,14.02c-0.46-6.55-0.46-12.34-0.46-17.83V63.99z"/>
		<path d="M302.1,63.99v28.64h-25.6v74.96h-31.08V92.63h-25.6V63.99H302.1z"/>
		<path d="M388.28,141.08h40.53v26.51H357.2V63.99h70.24V90.5h-39.16v12.34h33.82v25.75h-33.82V141.08z"/>
		<path d="M542.69,63.99h30.47v103.91h-10.82l-43.42-38.7c-3.05-2.74-6.4-6.09-9.6-9.45c0.3,4.27,0.61,8.53,0.61,12.04v35.8h-30.47
			V63.68h10.66l38.85,34.58c4.88,4.42,9.29,8.99,14.17,14.02c-0.46-6.55-0.46-12.34-0.46-17.83V63.99z"/>
		<path d="M625.26,167.59V63.99h42.96c31.38,0,52.87,21.79,52.87,51.95c0,30.01-20.87,51.65-52.71,51.65H625.26z M656.34,141.99h9.9
			c15.39,0,23.16-9.29,23.16-26.05c0-16.61-8.08-26.36-23.31-26.36h-9.75V141.99z"/>
	</g>
</g>
</svg>
